<svg xmlns="http://www.w3.org/2000/svg" style="display:none">
  <symbol id="icon-atracciones" viewBox="0 0 24 24" fill="none" stroke="currentColor" stroke-width="1.9" stroke-linecap="round" stroke-linejoin="round">
    <circle cx="12" cy="12" r="3"/><path d="M12 2v2M12 20v2M2 12h2M20 12h2M4.9 4.9l1.4 1.4M17.7 17.7l1.4 1.4M4.9 19.1l1.4-1.4M17.7 6.3l1.4-1.4"/>
  </symbol>
  <symbol id="icon-laboratorio" viewBox="0 0 24 24" fill="none" stroke="currentColor" stroke-width="1.9" stroke-linecap="round" stroke-linejoin="round">
    <path d="M9 3h6M10 3v6l-5 8a3 3 0 0 0 2.6 4.5h8.8A3 3 0 0 0 19 17l-5-8V3"/>
  </symbol>
  <symbol id="icon-arcade" viewBox="0 0 24 24" fill="none" stroke="currentColor" stroke-width="1.9" stroke-linecap="round" stroke-linejoin="round">
    <rect x="3" y="8" width="18" height="11" rx="3"/><path d="M8 13h2M7 12v2M15 12.5h.01M17.5 14.5h.01M12 8V5"/>
  </symbol>
  <symbol id="icon-pase" viewBox="0 0 24 24" fill="none" stroke="currentColor" stroke-width="1.9" stroke-linecap="round" stroke-linejoin="round">
    <path d="M3 8a2 2 0 0 1 2-2h14a2 2 0 0 1 2 2v2a2 2 0 0 0 0 4v2a2 2 0 0 1-2 2H5a2 2 0 0 1-2-2v-2a2 2 0 0 0 0-4V8z"/><path d="M9 8v8"/>
  </symbol>
  <symbol id="icon-sound-on" viewBox="0 0 24 24" fill="none" stroke="currentColor" stroke-width="1.9" stroke-linecap="round" stroke-linejoin="round">
    <path d="M11 5 6 9H3v6h3l5 4V5z"/><path d="M15.5 8.5a4 4 0 0 1 0 7M18 6a7 7 0 0 1 0 12"/>
  </symbol>
  <symbol id="icon-sound-off" viewBox="0 0 24 24" fill="none" stroke="currentColor" stroke-width="1.9" stroke-linecap="round" stroke-linejoin="round">
    <path d="M11 5 6 9H3v6h3l5 4V5z"/><path d="m22 9-6 6M16 9l6 6"/>
  </symbol>
  <symbol id="icon-star" viewBox="0 0 24 24" fill="currentColor" stroke="none">
    <path d="M12 3.5 14.6 9l6 .5-4.6 4 1.4 5.8L12 16.8 6.6 19.3 8 13.5 3.4 9.5l6-.5L12 3.5z"/>
  </symbol>
  <symbol id="icon-lock" viewBox="0 0 24 24" fill="none" stroke="currentColor" stroke-width="1.9" stroke-linecap="round" stroke-linejoin="round">
    <rect x="5" y="11" width="14" height="10" rx="2"/><path d="M8 11V8a4 4 0 0 1 8 0v3"/>
  </symbol>
</svg>
